<!--?xml version="1.0" encoding="utf-8"?-->
<!-- Generator: Adobe Illustrator 18.1.1, SVG Export Plug-In . SVG Version: 6.00 Build 0)  -->
<!-- downloaded from: https://icooon-mono.com/ -->
<svg version="1.1" id="_x32_" xmlns="http://www.w3.org/2000/svg" xmlns:xlink="http://www.w3.org/1999/xlink" x="0px" y="0px" viewBox="0 0 512 512" style="width: 256px; height: 256px; opacity: 1;" xml:space="preserve">
<style type="text/css">
	.st0{fill:#ffffff;}
</style>
<g>
	<path class="st0" d="M275.068,202.111L393.846,85.437c9.736-9.572,9.873-25.218,0.309-34.954
		c-9.564-9.737-25.218-9.88-34.954-0.316L240.43,166.855c-9.737,9.564-9.873,25.21-0.316,34.947
		C249.685,211.539,265.324,211.683,275.068,202.111z"></path>
	<path class="st0" d="M433.511,283.904c12.25,0,23.976,2.182,34.94,6.003l10.885-66.649c15.489-0.33,27.961-12.968,27.961-28.542
		v-9.528c0-15.79-12.796-28.586-28.579-28.586H347.246l-59.483,58.441c-8.056,7.913-18.719,12.272-30.014,12.272
		c-11.582,0-22.432-4.553-30.553-12.818c-15.689-15.983-16.264-41.216-1.924-57.896H28.578C12.796,156.602,0,169.397,0,185.187
		v9.528c0,15.552,12.436,28.19,27.918,28.542l30.811,188.687c3.727,22.848,23.48,39.629,46.63,39.629h241.069
		c-12.2-17.327-19.438-38.394-19.438-61.148C326.989,331.689,374.775,283.904,433.511,283.904z M152.161,400.054
		c-2.535,2.808-6.147,4.416-9.923,4.416h-7.461c-6.656,0-12.293-4.897-13.226-11.481l-16.408-116.008
		c-0.538-3.834,0.604-7.711,3.138-10.633c2.534-2.916,6.218-4.596,10.088-4.596h11.718c6.843,0,12.573,5.162,13.283,11.962
		l12.15,116.014C155.908,393.491,154.688,397.239,152.161,400.054z M228.618,400.442c-2.506,2.571-5.952,4.028-9.55,4.028h-7.64
		c-7.066,0-12.91-5.507-13.327-12.558l-6.893-116.014c-0.215-3.669,1.092-7.274,3.612-9.945c2.527-2.678,6.038-4.2,9.722-4.2h11.905
		c7.26,0,13.183,5.801,13.348,13.047l2.628,116.014C232.502,394.403,231.131,397.878,228.618,400.442z M309.153,391.911
		c-0.424,7.051-6.268,12.558-13.334,12.558h-7.64c-3.597,0-7.037-1.457-9.543-4.028c-2.52-2.564-3.892-6.039-3.813-9.629
		l2.635-116.014c0.158-7.246,6.089-13.047,13.348-13.047h11.905c3.669,0,7.195,1.522,9.715,4.2c2.52,2.671,3.827,6.276,3.612,9.945
		L309.153,391.911z"></path>
	<path class="st0" d="M433.511,311.929c-43.355,0-78.489,35.141-78.489,78.496c0,43.348,35.134,78.489,78.489,78.489
		c43.348,0,78.489-35.141,78.489-78.489C512,347.07,476.859,311.929,433.511,311.929z M478.36,403.508h-89.705v-26.173h89.705
		V403.508z"></path>
</g>
</svg>
